<?xml version="1.0" encoding="utf-8" standalone="no"?>
<!DOCTYPE svg PUBLIC "-//W3C//DTD SVG 1.1//EN"
  "http://www.w3.org/Graphics/SVG/1.1/DTD/svg11.dtd">
<svg xmlns:xlink="http://www.w3.org/1999/xlink" width="720pt" height="432pt" viewBox="0 0 720 432" xmlns="http://www.w3.org/2000/svg" version="1.1">
 <metadata>
  <rdf:RDF xmlns:dc="http://purl.org/dc/elements/1.1/" xmlns:cc="http://creativecommons.org/ns#" xmlns:rdf="http://www.w3.org/1999/02/22-rdf-syntax-ns#">
   <cc:Work>
    <dc:type rdf:resource="http://purl.org/dc/dcmitype/StillImage"/>
    <dc:date>2024-11-10T05:58:35.820539</dc:date>
    <dc:format>image/svg+xml</dc:format>
    <dc:creator>
     <cc:Agent>
      <dc:title>Matplotlib v3.9.2, https://matplotlib.org/</dc:title>
     </cc:Agent>
    </dc:creator>
   </cc:Work>
  </rdf:RDF>
 </metadata>
 <defs>
  <style type="text/css">*{stroke-linejoin: round; stroke-linecap: butt}</style>
 </defs>
 <g id="figure_1">
  <g id="patch_1">
   <path d="M 0 432 
L 720 432 
L 720 0 
L 0 0 
z
" style="fill: #ffffff"/>
  </g>
  <g id="axes_1">
   <g id="patch_2">
    <path d="M 90 384.48 
L 648 384.48 
L 648 51.84 
L 90 51.84 
z
" style="fill: #ffffff"/>
   </g>
   <g id="patch_3">
    <path d="M 117.292119 384.48 
L 150.861886 384.48 
L 150.861886 373.165714 
L 117.292119 373.165714 
z
" clip-path="url(#p95edd3ee53)" style="fill: #1f77b4; opacity: 0.5"/>
   </g>
   <g id="patch_4">
    <path d="M 150.861886 384.48 
L 184.431653 384.48 
L 184.431653 384.48 
L 150.861886 384.48 
z
" clip-path="url(#p95edd3ee53)" style="fill: #1f77b4; opacity: 0.5"/>
   </g>
   <g id="patch_5">
    <path d="M 184.431653 384.48 
L 218.001421 384.48 
L 218.001421 384.48 
L 184.431653 384.48 
z
" clip-path="url(#p95edd3ee53)" style="fill: #1f77b4; opacity: 0.5"/>
   </g>
   <g id="patch_6">
    <path d="M 218.001421 384.48 
L 251.571188 384.48 
L 251.571188 384.48 
L 218.001421 384.48 
z
" clip-path="url(#p95edd3ee53)" style="fill: #1f77b4; opacity: 0.5"/>
   </g>
   <g id="patch_7">
    <path d="M 251.571188 384.48 
L 285.140955 384.48 
L 285.140955 384.48 
L 251.571188 384.48 
z
" clip-path="url(#p95edd3ee53)" style="fill: #1f77b4; opacity: 0.5"/>
   </g>
   <g id="patch_8">
    <path d="M 285.140955 384.48 
L 318.710722 384.48 
L 318.710722 384.48 
L 285.140955 384.48 
z
" clip-path="url(#p95edd3ee53)" style="fill: #1f77b4; opacity: 0.5"/>
   </g>
   <g id="patch_9">
    <path d="M 318.710722 384.48 
L 352.280489 384.48 
L 352.280489 384.48 
L 318.710722 384.48 
z
" clip-path="url(#p95edd3ee53)" style="fill: #1f77b4; opacity: 0.5"/>
   </g>
   <g id="patch_10">
    <path d="M 352.280489 384.48 
L 385.850256 384.48 
L 385.850256 384.48 
L 352.280489 384.48 
z
" clip-path="url(#p95edd3ee53)" style="fill: #1f77b4; opacity: 0.5"/>
   </g>
   <g id="patch_11">
    <path d="M 385.850256 384.48 
L 419.420023 384.48 
L 419.420023 384.48 
L 385.850256 384.48 
z
" clip-path="url(#p95edd3ee53)" style="fill: #1f77b4; opacity: 0.5"/>
   </g>
   <g id="patch_12">
    <path d="M 419.420023 384.48 
L 452.98979 384.48 
L 452.98979 384.48 
L 419.420023 384.48 
z
" clip-path="url(#p95edd3ee53)" style="fill: #1f77b4; opacity: 0.5"/>
   </g>
   <g id="patch_13">
    <path d="M 452.98979 384.48 
L 486.559557 384.48 
L 486.559557 384.48 
L 452.98979 384.48 
z
" clip-path="url(#p95edd3ee53)" style="fill: #1f77b4; opacity: 0.5"/>
   </g>
   <g id="patch_14">
    <path d="M 486.559557 384.48 
L 520.129324 384.48 
L 520.129324 384.48 
L 486.559557 384.48 
z
" clip-path="url(#p95edd3ee53)" style="fill: #1f77b4; opacity: 0.5"/>
   </g>
   <g id="patch_15">
    <path d="M 520.129324 384.48 
L 553.699091 384.48 
L 553.699091 373.165714 
L 520.129324 373.165714 
z
" clip-path="url(#p95edd3ee53)" style="fill: #1f77b4; opacity: 0.5"/>
   </g>
   <g id="patch_16">
    <path d="M 553.699091 384.48 
L 587.268858 384.48 
L 587.268858 293.965714 
L 553.699091 293.965714 
z
" clip-path="url(#p95edd3ee53)" style="fill: #1f77b4; opacity: 0.5"/>
   </g>
   <g id="patch_17">
    <path d="M 587.268858 384.48 
L 620.838625 384.48 
L 620.838625 146.88 
L 587.268858 146.88 
z
" clip-path="url(#p95edd3ee53)" style="fill: #1f77b4; opacity: 0.5"/>
   </g>
   <g id="patch_18">
    <path d="M 123.175627 384.48 
L 156.473009 384.48 
L 156.473009 373.165714 
L 123.175627 373.165714 
z
" clip-path="url(#p95edd3ee53)" style="fill: #ff7f0e; opacity: 0.5"/>
   </g>
   <g id="patch_19">
    <path d="M 156.473009 384.48 
L 189.770392 384.48 
L 189.770392 384.48 
L 156.473009 384.48 
z
" clip-path="url(#p95edd3ee53)" style="fill: #ff7f0e; opacity: 0.5"/>
   </g>
   <g id="patch_20">
    <path d="M 189.770392 384.48 
L 223.067774 384.48 
L 223.067774 384.48 
L 189.770392 384.48 
z
" clip-path="url(#p95edd3ee53)" style="fill: #ff7f0e; opacity: 0.5"/>
   </g>
   <g id="patch_21">
    <path d="M 223.067774 384.48 
L 256.365156 384.48 
L 256.365156 384.48 
L 223.067774 384.48 
z
" clip-path="url(#p95edd3ee53)" style="fill: #ff7f0e; opacity: 0.5"/>
   </g>
   <g id="patch_22">
    <path d="M 256.365156 384.48 
L 289.662539 384.48 
L 289.662539 384.48 
L 256.365156 384.48 
z
" clip-path="url(#p95edd3ee53)" style="fill: #ff7f0e; opacity: 0.5"/>
   </g>
   <g id="patch_23">
    <path d="M 289.662539 384.48 
L 322.959921 384.48 
L 322.959921 384.48 
L 289.662539 384.48 
z
" clip-path="url(#p95edd3ee53)" style="fill: #ff7f0e; opacity: 0.5"/>
   </g>
   <g id="patch_24">
    <path d="M 322.959921 384.48 
L 356.257304 384.48 
L 356.257304 384.48 
L 322.959921 384.48 
z
" clip-path="url(#p95edd3ee53)" style="fill: #ff7f0e; opacity: 0.5"/>
   </g>
   <g id="patch_25">
    <path d="M 356.257304 384.48 
L 389.554686 384.48 
L 389.554686 384.48 
L 356.257304 384.48 
z
" clip-path="url(#p95edd3ee53)" style="fill: #ff7f0e; opacity: 0.5"/>
   </g>
   <g id="patch_26">
    <path d="M 389.554686 384.48 
L 422.852069 384.48 
L 422.852069 384.48 
L 389.554686 384.48 
z
" clip-path="url(#p95edd3ee53)" style="fill: #ff7f0e; opacity: 0.5"/>
   </g>
   <g id="patch_27">
    <path d="M 422.852069 384.48 
L 456.149451 384.48 
L 456.149451 384.48 
L 422.852069 384.48 
z
" clip-path="url(#p95edd3ee53)" style="fill: #ff7f0e; opacity: 0.5"/>
   </g>
   <g id="patch_28">
    <path d="M 456.149451 384.48 
L 489.446834 384.48 
L 489.446834 384.48 
L 456.149451 384.48 
z
" clip-path="url(#p95edd3ee53)" style="fill: #ff7f0e; opacity: 0.5"/>
   </g>
   <g id="patch_29">
    <path d="M 489.446834 384.48 
L 522.744216 384.48 
L 522.744216 384.48 
L 489.446834 384.48 
z
" clip-path="url(#p95edd3ee53)" style="fill: #ff7f0e; opacity: 0.5"/>
   </g>
   <g id="patch_30">
    <path d="M 522.744216 384.48 
L 556.041599 384.48 
L 556.041599 384.48 
L 522.744216 384.48 
z
" clip-path="url(#p95edd3ee53)" style="fill: #ff7f0e; opacity: 0.5"/>
   </g>
   <g id="patch_31">
    <path d="M 556.041599 384.48 
L 589.338981 384.48 
L 589.338981 316.594286 
L 556.041599 316.594286 
z
" clip-path="url(#p95edd3ee53)" style="fill: #ff7f0e; opacity: 0.5"/>
   </g>
   <g id="patch_32">
    <path d="M 589.338981 384.48 
L 622.636364 384.48 
L 622.636364 112.937143 
L 589.338981 112.937143 
z
" clip-path="url(#p95edd3ee53)" style="fill: #ff7f0e; opacity: 0.5"/>
   </g>
   <g id="patch_33">
    <path d="M 126.869162 384.48 
L 159.201213 384.48 
L 159.201213 373.165714 
L 126.869162 373.165714 
z
" clip-path="url(#p95edd3ee53)" style="fill: #2ca02c; opacity: 0.5"/>
   </g>
   <g id="patch_34">
    <path d="M 159.201213 384.48 
L 191.533265 384.48 
L 191.533265 384.48 
L 159.201213 384.48 
z
" clip-path="url(#p95edd3ee53)" style="fill: #2ca02c; opacity: 0.5"/>
   </g>
   <g id="patch_35">
    <path d="M 191.533265 384.48 
L 223.865316 384.48 
L 223.865316 384.48 
L 191.533265 384.48 
z
" clip-path="url(#p95edd3ee53)" style="fill: #2ca02c; opacity: 0.5"/>
   </g>
   <g id="patch_36">
    <path d="M 223.865316 384.48 
L 256.197368 384.48 
L 256.197368 384.48 
L 223.865316 384.48 
z
" clip-path="url(#p95edd3ee53)" style="fill: #2ca02c; opacity: 0.5"/>
   </g>
   <g id="patch_37">
    <path d="M 256.197368 384.48 
L 288.529419 384.48 
L 288.529419 384.48 
L 256.197368 384.48 
z
" clip-path="url(#p95edd3ee53)" style="fill: #2ca02c; opacity: 0.5"/>
   </g>
   <g id="patch_38">
    <path d="M 288.529419 384.48 
L 320.86147 384.48 
L 320.86147 384.48 
L 288.529419 384.48 
z
" clip-path="url(#p95edd3ee53)" style="fill: #2ca02c; opacity: 0.5"/>
   </g>
   <g id="patch_39">
    <path d="M 320.86147 384.48 
L 353.193522 384.48 
L 353.193522 384.48 
L 320.86147 384.48 
z
" clip-path="url(#p95edd3ee53)" style="fill: #2ca02c; opacity: 0.5"/>
   </g>
   <g id="patch_40">
    <path d="M 353.193522 384.48 
L 385.525573 384.48 
L 385.525573 384.48 
L 353.193522 384.48 
z
" clip-path="url(#p95edd3ee53)" style="fill: #2ca02c; opacity: 0.5"/>
   </g>
   <g id="patch_41">
    <path d="M 385.525573 384.48 
L 417.857625 384.48 
L 417.857625 384.48 
L 385.525573 384.48 
z
" clip-path="url(#p95edd3ee53)" style="fill: #2ca02c; opacity: 0.5"/>
   </g>
   <g id="patch_42">
    <path d="M 417.857625 384.48 
L 450.189676 384.48 
L 450.189676 384.48 
L 417.857625 384.48 
z
" clip-path="url(#p95edd3ee53)" style="fill: #2ca02c; opacity: 0.5"/>
   </g>
   <g id="patch_43">
    <path d="M 450.189676 384.48 
L 482.521728 384.48 
L 482.521728 384.48 
L 450.189676 384.48 
z
" clip-path="url(#p95edd3ee53)" style="fill: #2ca02c; opacity: 0.5"/>
   </g>
   <g id="patch_44">
    <path d="M 482.521728 384.48 
L 514.853779 384.48 
L 514.853779 384.48 
L 482.521728 384.48 
z
" clip-path="url(#p95edd3ee53)" style="fill: #2ca02c; opacity: 0.5"/>
   </g>
   <g id="patch_45">
    <path d="M 514.853779 384.48 
L 547.185831 384.48 
L 547.185831 384.48 
L 514.853779 384.48 
z
" clip-path="url(#p95edd3ee53)" style="fill: #2ca02c; opacity: 0.5"/>
   </g>
   <g id="patch_46">
    <path d="M 547.185831 384.48 
L 579.517882 384.48 
L 579.517882 361.851429 
L 547.185831 361.851429 
z
" clip-path="url(#p95edd3ee53)" style="fill: #2ca02c; opacity: 0.5"/>
   </g>
   <g id="patch_47">
    <path d="M 579.517882 384.48 
L 611.849934 384.48 
L 611.849934 67.68 
L 579.517882 67.68 
z
" clip-path="url(#p95edd3ee53)" style="fill: #2ca02c; opacity: 0.5"/>
   </g>
   <g id="patch_48">
    <path d="M 121.70475 384.48 
L 154.812553 384.48 
L 154.812553 373.165714 
L 121.70475 373.165714 
z
" clip-path="url(#p95edd3ee53)" style="fill: #d62728; opacity: 0.5"/>
   </g>
   <g id="patch_49">
    <path d="M 154.812553 384.48 
L 187.920355 384.48 
L 187.920355 384.48 
L 154.812553 384.48 
z
" clip-path="url(#p95edd3ee53)" style="fill: #d62728; opacity: 0.5"/>
   </g>
   <g id="patch_50">
    <path d="M 187.920355 384.48 
L 221.028158 384.48 
L 221.028158 384.48 
L 187.920355 384.48 
z
" clip-path="url(#p95edd3ee53)" style="fill: #d62728; opacity: 0.5"/>
   </g>
   <g id="patch_51">
    <path d="M 221.028158 384.48 
L 254.135961 384.48 
L 254.135961 384.48 
L 221.028158 384.48 
z
" clip-path="url(#p95edd3ee53)" style="fill: #d62728; opacity: 0.5"/>
   </g>
   <g id="patch_52">
    <path d="M 254.135961 384.48 
L 287.243764 384.48 
L 287.243764 384.48 
L 254.135961 384.48 
z
" clip-path="url(#p95edd3ee53)" style="fill: #d62728; opacity: 0.5"/>
   </g>
   <g id="patch_53">
    <path d="M 287.243764 384.48 
L 320.351567 384.48 
L 320.351567 384.48 
L 287.243764 384.48 
z
" clip-path="url(#p95edd3ee53)" style="fill: #d62728; opacity: 0.5"/>
   </g>
   <g id="patch_54">
    <path d="M 320.351567 384.48 
L 353.459369 384.48 
L 353.459369 384.48 
L 320.351567 384.48 
z
" clip-path="url(#p95edd3ee53)" style="fill: #d62728; opacity: 0.5"/>
   </g>
   <g id="patch_55">
    <path d="M 353.459369 384.48 
L 386.567172 384.48 
L 386.567172 384.48 
L 353.459369 384.48 
z
" clip-path="url(#p95edd3ee53)" style="fill: #d62728; opacity: 0.5"/>
   </g>
   <g id="patch_56">
    <path d="M 386.567172 384.48 
L 419.674975 384.48 
L 419.674975 384.48 
L 386.567172 384.48 
z
" clip-path="url(#p95edd3ee53)" style="fill: #d62728; opacity: 0.5"/>
   </g>
   <g id="patch_57">
    <path d="M 419.674975 384.48 
L 452.782778 384.48 
L 452.782778 384.48 
L 419.674975 384.48 
z
" clip-path="url(#p95edd3ee53)" style="fill: #d62728; opacity: 0.5"/>
   </g>
   <g id="patch_58">
    <path d="M 452.782778 384.48 
L 485.89058 384.48 
L 485.89058 384.48 
L 452.782778 384.48 
z
" clip-path="url(#p95edd3ee53)" style="fill: #d62728; opacity: 0.5"/>
   </g>
   <g id="patch_59">
    <path d="M 485.89058 384.48 
L 518.998383 384.48 
L 518.998383 384.48 
L 485.89058 384.48 
z
" clip-path="url(#p95edd3ee53)" style="fill: #d62728; opacity: 0.5"/>
   </g>
   <g id="patch_60">
    <path d="M 518.998383 384.48 
L 552.106186 384.48 
L 552.106186 384.48 
L 518.998383 384.48 
z
" clip-path="url(#p95edd3ee53)" style="fill: #d62728; opacity: 0.5"/>
   </g>
   <g id="patch_61">
    <path d="M 552.106186 384.48 
L 585.213989 384.48 
L 585.213989 305.28 
L 552.106186 305.28 
z
" clip-path="url(#p95edd3ee53)" style="fill: #d62728; opacity: 0.5"/>
   </g>
   <g id="patch_62">
    <path d="M 585.213989 384.48 
L 618.321792 384.48 
L 618.321792 124.251429 
L 585.213989 124.251429 
z
" clip-path="url(#p95edd3ee53)" style="fill: #d62728; opacity: 0.5"/>
   </g>
   <g id="patch_63">
    <path d="M 115.363636 384.48 
L 148.716585 384.48 
L 148.716585 373.165714 
L 115.363636 373.165714 
z
" clip-path="url(#p95edd3ee53)" style="fill: #9467bd; opacity: 0.5"/>
   </g>
   <g id="patch_64">
    <path d="M 148.716585 384.48 
L 182.069534 384.48 
L 182.069534 384.48 
L 148.716585 384.48 
z
" clip-path="url(#p95edd3ee53)" style="fill: #9467bd; opacity: 0.5"/>
   </g>
   <g id="patch_65">
    <path d="M 182.069534 384.48 
L 215.422483 384.48 
L 215.422483 384.48 
L 182.069534 384.48 
z
" clip-path="url(#p95edd3ee53)" style="fill: #9467bd; opacity: 0.5"/>
   </g>
   <g id="patch_66">
    <path d="M 215.422483 384.48 
L 248.775432 384.48 
L 248.775432 384.48 
L 215.422483 384.48 
z
" clip-path="url(#p95edd3ee53)" style="fill: #9467bd; opacity: 0.5"/>
   </g>
   <g id="patch_67">
    <path d="M 248.775432 384.48 
L 282.128381 384.48 
L 282.128381 384.48 
L 248.775432 384.48 
z
" clip-path="url(#p95edd3ee53)" style="fill: #9467bd; opacity: 0.5"/>
   </g>
   <g id="patch_68">
    <path d="M 282.128381 384.48 
L 315.48133 384.48 
L 315.48133 384.48 
L 282.128381 384.48 
z
" clip-path="url(#p95edd3ee53)" style="fill: #9467bd; opacity: 0.5"/>
   </g>
   <g id="patch_69">
    <path d="M 315.48133 384.48 
L 348.834279 384.48 
L 348.834279 384.48 
L 315.48133 384.48 
z
" clip-path="url(#p95edd3ee53)" style="fill: #9467bd; opacity: 0.5"/>
   </g>
   <g id="patch_70">
    <path d="M 348.834279 384.48 
L 382.187228 384.48 
L 382.187228 384.48 
L 348.834279 384.48 
z
" clip-path="url(#p95edd3ee53)" style="fill: #9467bd; opacity: 0.5"/>
   </g>
   <g id="patch_71">
    <path d="M 382.187228 384.48 
L 415.540177 384.48 
L 415.540177 384.48 
L 382.187228 384.48 
z
" clip-path="url(#p95edd3ee53)" style="fill: #9467bd; opacity: 0.5"/>
   </g>
   <g id="patch_72">
    <path d="M 415.540177 384.48 
L 448.893126 384.48 
L 448.893126 384.48 
L 415.540177 384.48 
z
" clip-path="url(#p95edd3ee53)" style="fill: #9467bd; opacity: 0.5"/>
   </g>
   <g id="patch_73">
    <path d="M 448.893126 384.48 
L 482.246075 384.48 
L 482.246075 384.48 
L 448.893126 384.48 
z
" clip-path="url(#p95edd3ee53)" style="fill: #9467bd; opacity: 0.5"/>
   </g>
   <g id="patch_74">
    <path d="M 482.246075 384.48 
L 515.599024 384.48 
L 515.599024 384.48 
L 482.246075 384.48 
z
" clip-path="url(#p95edd3ee53)" style="fill: #9467bd; opacity: 0.5"/>
   </g>
   <g id="patch_75">
    <path d="M 515.599024 384.48 
L 548.951972 384.48 
L 548.951972 384.48 
L 515.599024 384.48 
z
" clip-path="url(#p95edd3ee53)" style="fill: #9467bd; opacity: 0.5"/>
   </g>
   <g id="patch_76">
    <path d="M 548.951972 384.48 
L 582.304921 384.48 
L 582.304921 327.908571 
L 548.951972 327.908571 
z
" clip-path="url(#p95edd3ee53)" style="fill: #9467bd; opacity: 0.5"/>
   </g>
   <g id="patch_77">
    <path d="M 582.304921 384.48 
L 615.65787 384.48 
L 615.65787 101.622857 
L 582.304921 101.622857 
z
" clip-path="url(#p95edd3ee53)" style="fill: #9467bd; opacity: 0.5"/>
   </g>
   <g id="patch_78">
    <path d="M 120.626107 384.48 
L 153.930026 384.48 
L 153.930026 373.165714 
L 120.626107 373.165714 
z
" clip-path="url(#p95edd3ee53)" style="fill: #8c564b; opacity: 0.5"/>
   </g>
   <g id="patch_79">
    <path d="M 153.930026 384.48 
L 187.233946 384.48 
L 187.233946 384.48 
L 153.930026 384.48 
z
" clip-path="url(#p95edd3ee53)" style="fill: #8c564b; opacity: 0.5"/>
   </g>
   <g id="patch_80">
    <path d="M 187.233946 384.48 
L 220.537866 384.48 
L 220.537866 384.48 
L 187.233946 384.48 
z
" clip-path="url(#p95edd3ee53)" style="fill: #8c564b; opacity: 0.5"/>
   </g>
   <g id="patch_81">
    <path d="M 220.537866 384.48 
L 253.841786 384.48 
L 253.841786 384.48 
L 220.537866 384.48 
z
" clip-path="url(#p95edd3ee53)" style="fill: #8c564b; opacity: 0.5"/>
   </g>
   <g id="patch_82">
    <path d="M 253.841786 384.48 
L 287.145705 384.48 
L 287.145705 384.48 
L 253.841786 384.48 
z
" clip-path="url(#p95edd3ee53)" style="fill: #8c564b; opacity: 0.5"/>
   </g>
   <g id="patch_83">
    <path d="M 287.145705 384.48 
L 320.449625 384.48 
L 320.449625 384.48 
L 287.145705 384.48 
z
" clip-path="url(#p95edd3ee53)" style="fill: #8c564b; opacity: 0.5"/>
   </g>
   <g id="patch_84">
    <path d="M 320.449625 384.48 
L 353.753545 384.48 
L 353.753545 384.48 
L 320.449625 384.48 
z
" clip-path="url(#p95edd3ee53)" style="fill: #8c564b; opacity: 0.5"/>
   </g>
   <g id="patch_85">
    <path d="M 353.753545 384.48 
L 387.057464 384.48 
L 387.057464 384.48 
L 353.753545 384.48 
z
" clip-path="url(#p95edd3ee53)" style="fill: #8c564b; opacity: 0.5"/>
   </g>
   <g id="patch_86">
    <path d="M 387.057464 384.48 
L 420.361384 384.48 
L 420.361384 384.48 
L 387.057464 384.48 
z
" clip-path="url(#p95edd3ee53)" style="fill: #8c564b; opacity: 0.5"/>
   </g>
   <g id="patch_87">
    <path d="M 420.361384 384.48 
L 453.665304 384.48 
L 453.665304 384.48 
L 420.361384 384.48 
z
" clip-path="url(#p95edd3ee53)" style="fill: #8c564b; opacity: 0.5"/>
   </g>
   <g id="patch_88">
    <path d="M 453.665304 384.48 
L 486.969223 384.48 
L 486.969223 384.48 
L 453.665304 384.48 
z
" clip-path="url(#p95edd3ee53)" style="fill: #8c564b; opacity: 0.5"/>
   </g>
   <g id="patch_89">
    <path d="M 486.969223 384.48 
L 520.273143 384.48 
L 520.273143 384.48 
L 486.969223 384.48 
z
" clip-path="url(#p95edd3ee53)" style="fill: #8c564b; opacity: 0.5"/>
   </g>
   <g id="patch_90">
    <path d="M 520.273143 384.48 
L 553.577063 384.48 
L 553.577063 373.165714 
L 520.273143 373.165714 
z
" clip-path="url(#p95edd3ee53)" style="fill: #8c564b; opacity: 0.5"/>
   </g>
   <g id="patch_91">
    <path d="M 553.577063 384.48 
L 586.880983 384.48 
L 586.880983 339.222857 
L 553.577063 339.222857 
z
" clip-path="url(#p95edd3ee53)" style="fill: #8c564b; opacity: 0.5"/>
   </g>
   <g id="patch_92">
    <path d="M 586.880983 384.48 
L 620.184902 384.48 
L 620.184902 101.622857 
L 586.880983 101.622857 
z
" clip-path="url(#p95edd3ee53)" style="fill: #8c564b; opacity: 0.5"/>
   </g>
   <g id="matplotlib.axis_1">
    <g id="xtick_1">
     <g id="line2d_1">
      <defs>
       <path id="m19022fd550" d="M 0 0 
L 0 3.5 
" style="stroke: #000000; stroke-width: 0.8"/>
      </defs>
      <g>
       <use xlink:href="#m19022fd550" x="160.748358" y="384.48" style="stroke: #000000; stroke-width: 0.8"/>
      </g>
     </g>
     <g id="text_1">
      <!-- 50 -->
      <g transform="translate(154.385858 399.078438) scale(0.1 -0.1)">
       <defs>
        <path id="DejaVuSans-35" d="M 691 4666 
L 3169 4666 
L 3169 4134 
L 1269 4134 
L 1269 2991 
Q 1406 3038 1543 3061 
Q 1681 3084 1819 3084 
Q 2600 3084 3056 2656 
Q 3513 2228 3513 1497 
Q 3513 744 3044 326 
Q 2575 -91 1722 -91 
Q 1428 -91 1123 -41 
Q 819 9 494 109 
L 494 744 
Q 775 591 1075 516 
Q 1375 441 1709 441 
Q 2250 441 2565 725 
Q 2881 1009 2881 1497 
Q 2881 1984 2565 2268 
Q 2250 2553 1709 2553 
Q 1456 2553 1204 2497 
Q 953 2441 691 2322 
L 691 4666 
z
" transform="scale(0.015625)"/>
        <path id="DejaVuSans-30" d="M 2034 4250 
Q 1547 4250 1301 3770 
Q 1056 3291 1056 2328 
Q 1056 1369 1301 889 
Q 1547 409 2034 409 
Q 2525 409 2770 889 
Q 3016 1369 3016 2328 
Q 3016 3291 2770 3770 
Q 2525 4250 2034 4250 
z
M 2034 4750 
Q 2819 4750 3233 4129 
Q 3647 3509 3647 2328 
Q 3647 1150 3233 529 
Q 2819 -91 2034 -91 
Q 1250 -91 836 529 
Q 422 1150 422 2328 
Q 422 3509 836 4129 
Q 1250 4750 2034 4750 
z
" transform="scale(0.015625)"/>
       </defs>
       <use xlink:href="#DejaVuSans-35"/>
       <use xlink:href="#DejaVuSans-30" x="63.623047"/>
      </g>
     </g>
    </g>
    <g id="xtick_2">
     <g id="line2d_2">
      <g>
       <use xlink:href="#m19022fd550" x="242.463736" y="384.48" style="stroke: #000000; stroke-width: 0.8"/>
      </g>
     </g>
     <g id="text_2">
      <!-- 100 -->
      <g transform="translate(232.919986 399.078438) scale(0.1 -0.1)">
       <defs>
        <path id="DejaVuSans-31" d="M 794 531 
L 1825 531 
L 1825 4091 
L 703 3866 
L 703 4441 
L 1819 4666 
L 2450 4666 
L 2450 531 
L 3481 531 
L 3481 0 
L 794 0 
L 794 531 
z
" transform="scale(0.015625)"/>
       </defs>
       <use xlink:href="#DejaVuSans-31"/>
       <use xlink:href="#DejaVuSans-30" x="63.623047"/>
       <use xlink:href="#DejaVuSans-30" x="127.246094"/>
      </g>
     </g>
    </g>
    <g id="xtick_3">
     <g id="line2d_3">
      <g>
       <use xlink:href="#m19022fd550" x="324.179115" y="384.48" style="stroke: #000000; stroke-width: 0.8"/>
      </g>
     </g>
     <g id="text_3">
      <!-- 150 -->
      <g transform="translate(314.635365 399.078438) scale(0.1 -0.1)">
       <use xlink:href="#DejaVuSans-31"/>
       <use xlink:href="#DejaVuSans-35" x="63.623047"/>
       <use xlink:href="#DejaVuSans-30" x="127.246094"/>
      </g>
     </g>
    </g>
    <g id="xtick_4">
     <g id="line2d_4">
      <g>
       <use xlink:href="#m19022fd550" x="405.894493" y="384.48" style="stroke: #000000; stroke-width: 0.8"/>
      </g>
     </g>
     <g id="text_4">
      <!-- 200 -->
      <g transform="translate(396.350743 399.078438) scale(0.1 -0.1)">
       <defs>
        <path id="DejaVuSans-32" d="M 1228 531 
L 3431 531 
L 3431 0 
L 469 0 
L 469 531 
Q 828 903 1448 1529 
Q 2069 2156 2228 2338 
Q 2531 2678 2651 2914 
Q 2772 3150 2772 3378 
Q 2772 3750 2511 3984 
Q 2250 4219 1831 4219 
Q 1534 4219 1204 4116 
Q 875 4013 500 3803 
L 500 4441 
Q 881 4594 1212 4672 
Q 1544 4750 1819 4750 
Q 2544 4750 2975 4387 
Q 3406 4025 3406 3419 
Q 3406 3131 3298 2873 
Q 3191 2616 2906 2266 
Q 2828 2175 2409 1742 
Q 1991 1309 1228 531 
z
" transform="scale(0.015625)"/>
       </defs>
       <use xlink:href="#DejaVuSans-32"/>
       <use xlink:href="#DejaVuSans-30" x="63.623047"/>
       <use xlink:href="#DejaVuSans-30" x="127.246094"/>
      </g>
     </g>
    </g>
    <g id="xtick_5">
     <g id="line2d_5">
      <g>
       <use xlink:href="#m19022fd550" x="487.609872" y="384.48" style="stroke: #000000; stroke-width: 0.8"/>
      </g>
     </g>
     <g id="text_5">
      <!-- 250 -->
      <g transform="translate(478.066122 399.078438) scale(0.1 -0.1)">
       <use xlink:href="#DejaVuSans-32"/>
       <use xlink:href="#DejaVuSans-35" x="63.623047"/>
       <use xlink:href="#DejaVuSans-30" x="127.246094"/>
      </g>
     </g>
    </g>
    <g id="xtick_6">
     <g id="line2d_6">
      <g>
       <use xlink:href="#m19022fd550" x="569.325251" y="384.48" style="stroke: #000000; stroke-width: 0.8"/>
      </g>
     </g>
     <g id="text_6">
      <!-- 300 -->
      <g transform="translate(559.781501 399.078438) scale(0.1 -0.1)">
       <defs>
        <path id="DejaVuSans-33" d="M 2597 2516 
Q 3050 2419 3304 2112 
Q 3559 1806 3559 1356 
Q 3559 666 3084 287 
Q 2609 -91 1734 -91 
Q 1441 -91 1130 -33 
Q 819 25 488 141 
L 488 750 
Q 750 597 1062 519 
Q 1375 441 1716 441 
Q 2309 441 2620 675 
Q 2931 909 2931 1356 
Q 2931 1769 2642 2001 
Q 2353 2234 1838 2234 
L 1294 2234 
L 1294 2753 
L 1863 2753 
Q 2328 2753 2575 2939 
Q 2822 3125 2822 3475 
Q 2822 3834 2567 4026 
Q 2313 4219 1838 4219 
Q 1578 4219 1281 4162 
Q 984 4106 628 3988 
L 628 4550 
Q 988 4650 1302 4700 
Q 1616 4750 1894 4750 
Q 2613 4750 3031 4423 
Q 3450 4097 3450 3541 
Q 3450 3153 3228 2886 
Q 3006 2619 2597 2516 
z
" transform="scale(0.015625)"/>
       </defs>
       <use xlink:href="#DejaVuSans-33"/>
       <use xlink:href="#DejaVuSans-30" x="63.623047"/>
       <use xlink:href="#DejaVuSans-30" x="127.246094"/>
      </g>
     </g>
    </g>
    <g id="text_7">
     <!-- Carbon Footprint -->
     <g transform="translate(326.876562 412.756563) scale(0.1 -0.1)">
      <defs>
       <path id="DejaVuSans-43" d="M 4122 4306 
L 4122 3641 
Q 3803 3938 3442 4084 
Q 3081 4231 2675 4231 
Q 1875 4231 1450 3742 
Q 1025 3253 1025 2328 
Q 1025 1406 1450 917 
Q 1875 428 2675 428 
Q 3081 428 3442 575 
Q 3803 722 4122 1019 
L 4122 359 
Q 3791 134 3420 21 
Q 3050 -91 2638 -91 
Q 1578 -91 968 557 
Q 359 1206 359 2328 
Q 359 3453 968 4101 
Q 1578 4750 2638 4750 
Q 3056 4750 3426 4639 
Q 3797 4528 4122 4306 
z
" transform="scale(0.015625)"/>
       <path id="DejaVuSans-61" d="M 2194 1759 
Q 1497 1759 1228 1600 
Q 959 1441 959 1056 
Q 959 750 1161 570 
Q 1363 391 1709 391 
Q 2188 391 2477 730 
Q 2766 1069 2766 1631 
L 2766 1759 
L 2194 1759 
z
M 3341 1997 
L 3341 0 
L 2766 0 
L 2766 531 
Q 2569 213 2275 61 
Q 1981 -91 1556 -91 
Q 1019 -91 701 211 
Q 384 513 384 1019 
Q 384 1609 779 1909 
Q 1175 2209 1959 2209 
L 2766 2209 
L 2766 2266 
Q 2766 2663 2505 2880 
Q 2244 3097 1772 3097 
Q 1472 3097 1187 3025 
Q 903 2953 641 2809 
L 641 3341 
Q 956 3463 1253 3523 
Q 1550 3584 1831 3584 
Q 2591 3584 2966 3190 
Q 3341 2797 3341 1997 
z
" transform="scale(0.015625)"/>
       <path id="DejaVuSans-72" d="M 2631 2963 
Q 2534 3019 2420 3045 
Q 2306 3072 2169 3072 
Q 1681 3072 1420 2755 
Q 1159 2438 1159 1844 
L 1159 0 
L 581 0 
L 581 3500 
L 1159 3500 
L 1159 2956 
Q 1341 3275 1631 3429 
Q 1922 3584 2338 3584 
Q 2397 3584 2469 3576 
Q 2541 3569 2628 3553 
L 2631 2963 
z
" transform="scale(0.015625)"/>
       <path id="DejaVuSans-62" d="M 3116 1747 
Q 3116 2381 2855 2742 
Q 2594 3103 2138 3103 
Q 1681 3103 1420 2742 
Q 1159 2381 1159 1747 
Q 1159 1113 1420 752 
Q 1681 391 2138 391 
Q 2594 391 2855 752 
Q 3116 1113 3116 1747 
z
M 1159 2969 
Q 1341 3281 1617 3432 
Q 1894 3584 2278 3584 
Q 2916 3584 3314 3078 
Q 3713 2572 3713 1747 
Q 3713 922 3314 415 
Q 2916 -91 2278 -91 
Q 1894 -91 1617 61 
Q 1341 213 1159 525 
L 1159 0 
L 581 0 
L 581 4863 
L 1159 4863 
L 1159 2969 
z
" transform="scale(0.015625)"/>
       <path id="DejaVuSans-6f" d="M 1959 3097 
Q 1497 3097 1228 2736 
Q 959 2375 959 1747 
Q 959 1119 1226 758 
Q 1494 397 1959 397 
Q 2419 397 2687 759 
Q 2956 1122 2956 1747 
Q 2956 2369 2687 2733 
Q 2419 3097 1959 3097 
z
M 1959 3584 
Q 2709 3584 3137 3096 
Q 3566 2609 3566 1747 
Q 3566 888 3137 398 
Q 2709 -91 1959 -91 
Q 1206 -91 779 398 
Q 353 888 353 1747 
Q 353 2609 779 3096 
Q 1206 3584 1959 3584 
z
" transform="scale(0.015625)"/>
       <path id="DejaVuSans-6e" d="M 3513 2113 
L 3513 0 
L 2938 0 
L 2938 2094 
Q 2938 2591 2744 2837 
Q 2550 3084 2163 3084 
Q 1697 3084 1428 2787 
Q 1159 2491 1159 1978 
L 1159 0 
L 581 0 
L 581 3500 
L 1159 3500 
L 1159 2956 
Q 1366 3272 1645 3428 
Q 1925 3584 2291 3584 
Q 2894 3584 3203 3211 
Q 3513 2838 3513 2113 
z
" transform="scale(0.015625)"/>
       <path id="DejaVuSans-20" transform="scale(0.015625)"/>
       <path id="DejaVuSans-46" d="M 628 4666 
L 3309 4666 
L 3309 4134 
L 1259 4134 
L 1259 2759 
L 3109 2759 
L 3109 2228 
L 1259 2228 
L 1259 0 
L 628 0 
L 628 4666 
z
" transform="scale(0.015625)"/>
       <path id="DejaVuSans-74" d="M 1172 4494 
L 1172 3500 
L 2356 3500 
L 2356 3053 
L 1172 3053 
L 1172 1153 
Q 1172 725 1289 603 
Q 1406 481 1766 481 
L 2356 481 
L 2356 0 
L 1766 0 
Q 1100 0 847 248 
Q 594 497 594 1153 
L 594 3053 
L 172 3053 
L 172 3500 
L 594 3500 
L 594 4494 
L 1172 4494 
z
" transform="scale(0.015625)"/>
       <path id="DejaVuSans-70" d="M 1159 525 
L 1159 -1331 
L 581 -1331 
L 581 3500 
L 1159 3500 
L 1159 2969 
Q 1341 3281 1617 3432 
Q 1894 3584 2278 3584 
Q 2916 3584 3314 3078 
Q 3713 2572 3713 1747 
Q 3713 922 3314 415 
Q 2916 -91 2278 -91 
Q 1894 -91 1617 61 
Q 1341 213 1159 525 
z
M 3116 1747 
Q 3116 2381 2855 2742 
Q 2594 3103 2138 3103 
Q 1681 3103 1420 2742 
Q 1159 2381 1159 1747 
Q 1159 1113 1420 752 
Q 1681 391 2138 391 
Q 2594 391 2855 752 
Q 3116 1113 3116 1747 
z
" transform="scale(0.015625)"/>
       <path id="DejaVuSans-69" d="M 603 3500 
L 1178 3500 
L 1178 0 
L 603 0 
L 603 3500 
z
M 603 4863 
L 1178 4863 
L 1178 4134 
L 603 4134 
L 603 4863 
z
" transform="scale(0.015625)"/>
      </defs>
      <use xlink:href="#DejaVuSans-43"/>
      <use xlink:href="#DejaVuSans-61" x="69.824219"/>
      <use xlink:href="#DejaVuSans-72" x="131.103516"/>
      <use xlink:href="#DejaVuSans-62" x="172.216797"/>
      <use xlink:href="#DejaVuSans-6f" x="235.693359"/>
      <use xlink:href="#DejaVuSans-6e" x="296.875"/>
      <use xlink:href="#DejaVuSans-20" x="360.253906"/>
      <use xlink:href="#DejaVuSans-46" x="392.041016"/>
      <use xlink:href="#DejaVuSans-6f" x="445.935547"/>
      <use xlink:href="#DejaVuSans-6f" x="507.117188"/>
      <use xlink:href="#DejaVuSans-74" x="568.298828"/>
      <use xlink:href="#DejaVuSans-70" x="607.507812"/>
      <use xlink:href="#DejaVuSans-72" x="670.984375"/>
      <use xlink:href="#DejaVuSans-69" x="712.097656"/>
      <use xlink:href="#DejaVuSans-6e" x="739.880859"/>
      <use xlink:href="#DejaVuSans-74" x="803.259766"/>
     </g>
    </g>
   </g>
   <g id="matplotlib.axis_2">
    <g id="ytick_1">
     <g id="line2d_7">
      <defs>
       <path id="m02955a6f77" d="M 0 0 
L -3.5 0 
" style="stroke: #000000; stroke-width: 0.8"/>
      </defs>
      <g>
       <use xlink:href="#m02955a6f77" x="90" y="384.48" style="stroke: #000000; stroke-width: 0.8"/>
      </g>
     </g>
     <g id="text_8">
      <!-- 0 -->
      <g transform="translate(76.6375 388.279219) scale(0.1 -0.1)">
       <use xlink:href="#DejaVuSans-30"/>
      </g>
     </g>
    </g>
    <g id="ytick_2">
     <g id="line2d_8">
      <g>
       <use xlink:href="#m02955a6f77" x="90" y="327.908571" style="stroke: #000000; stroke-width: 0.8"/>
      </g>
     </g>
     <g id="text_9">
      <!-- 5 -->
      <g transform="translate(76.6375 331.70779) scale(0.1 -0.1)">
       <use xlink:href="#DejaVuSans-35"/>
      </g>
     </g>
    </g>
    <g id="ytick_3">
     <g id="line2d_9">
      <g>
       <use xlink:href="#m02955a6f77" x="90" y="271.337143" style="stroke: #000000; stroke-width: 0.8"/>
      </g>
     </g>
     <g id="text_10">
      <!-- 10 -->
      <g transform="translate(70.275 275.136362) scale(0.1 -0.1)">
       <use xlink:href="#DejaVuSans-31"/>
       <use xlink:href="#DejaVuSans-30" x="63.623047"/>
      </g>
     </g>
    </g>
    <g id="ytick_4">
     <g id="line2d_10">
      <g>
       <use xlink:href="#m02955a6f77" x="90" y="214.765714" style="stroke: #000000; stroke-width: 0.8"/>
      </g>
     </g>
     <g id="text_11">
      <!-- 15 -->
      <g transform="translate(70.275 218.564933) scale(0.1 -0.1)">
       <use xlink:href="#DejaVuSans-31"/>
       <use xlink:href="#DejaVuSans-35" x="63.623047"/>
      </g>
     </g>
    </g>
    <g id="ytick_5">
     <g id="line2d_11">
      <g>
       <use xlink:href="#m02955a6f77" x="90" y="158.194286" style="stroke: #000000; stroke-width: 0.8"/>
      </g>
     </g>
     <g id="text_12">
      <!-- 20 -->
      <g transform="translate(70.275 161.993504) scale(0.1 -0.1)">
       <use xlink:href="#DejaVuSans-32"/>
       <use xlink:href="#DejaVuSans-30" x="63.623047"/>
      </g>
     </g>
    </g>
    <g id="ytick_6">
     <g id="line2d_12">
      <g>
       <use xlink:href="#m02955a6f77" x="90" y="101.622857" style="stroke: #000000; stroke-width: 0.8"/>
      </g>
     </g>
     <g id="text_13">
      <!-- 25 -->
      <g transform="translate(70.275 105.422076) scale(0.1 -0.1)">
       <use xlink:href="#DejaVuSans-32"/>
       <use xlink:href="#DejaVuSans-35" x="63.623047"/>
      </g>
     </g>
    </g>
    <g id="text_14">
     <!-- Frequency -->
     <g transform="translate(64.195312 243.989687) rotate(-90) scale(0.1 -0.1)">
      <defs>
       <path id="DejaVuSans-65" d="M 3597 1894 
L 3597 1613 
L 953 1613 
Q 991 1019 1311 708 
Q 1631 397 2203 397 
Q 2534 397 2845 478 
Q 3156 559 3463 722 
L 3463 178 
Q 3153 47 2828 -22 
Q 2503 -91 2169 -91 
Q 1331 -91 842 396 
Q 353 884 353 1716 
Q 353 2575 817 3079 
Q 1281 3584 2069 3584 
Q 2775 3584 3186 3129 
Q 3597 2675 3597 1894 
z
M 3022 2063 
Q 3016 2534 2758 2815 
Q 2500 3097 2075 3097 
Q 1594 3097 1305 2825 
Q 1016 2553 972 2059 
L 3022 2063 
z
" transform="scale(0.015625)"/>
       <path id="DejaVuSans-71" d="M 947 1747 
Q 947 1113 1208 752 
Q 1469 391 1925 391 
Q 2381 391 2643 752 
Q 2906 1113 2906 1747 
Q 2906 2381 2643 2742 
Q 2381 3103 1925 3103 
Q 1469 3103 1208 2742 
Q 947 2381 947 1747 
z
M 2906 525 
Q 2725 213 2448 61 
Q 2172 -91 1784 -91 
Q 1150 -91 751 415 
Q 353 922 353 1747 
Q 353 2572 751 3078 
Q 1150 3584 1784 3584 
Q 2172 3584 2448 3432 
Q 2725 3281 2906 2969 
L 2906 3500 
L 3481 3500 
L 3481 -1331 
L 2906 -1331 
L 2906 525 
z
" transform="scale(0.015625)"/>
       <path id="DejaVuSans-75" d="M 544 1381 
L 544 3500 
L 1119 3500 
L 1119 1403 
Q 1119 906 1312 657 
Q 1506 409 1894 409 
Q 2359 409 2629 706 
Q 2900 1003 2900 1516 
L 2900 3500 
L 3475 3500 
L 3475 0 
L 2900 0 
L 2900 538 
Q 2691 219 2414 64 
Q 2138 -91 1772 -91 
Q 1169 -91 856 284 
Q 544 659 544 1381 
z
M 1991 3584 
L 1991 3584 
z
" transform="scale(0.015625)"/>
       <path id="DejaVuSans-63" d="M 3122 3366 
L 3122 2828 
Q 2878 2963 2633 3030 
Q 2388 3097 2138 3097 
Q 1578 3097 1268 2742 
Q 959 2388 959 1747 
Q 959 1106 1268 751 
Q 1578 397 2138 397 
Q 2388 397 2633 464 
Q 2878 531 3122 666 
L 3122 134 
Q 2881 22 2623 -34 
Q 2366 -91 2075 -91 
Q 1284 -91 818 406 
Q 353 903 353 1747 
Q 353 2603 823 3093 
Q 1294 3584 2113 3584 
Q 2378 3584 2631 3529 
Q 2884 3475 3122 3366 
z
" transform="scale(0.015625)"/>
       <path id="DejaVuSans-79" d="M 2059 -325 
Q 1816 -950 1584 -1140 
Q 1353 -1331 966 -1331 
L 506 -1331 
L 506 -850 
L 844 -850 
Q 1081 -850 1212 -737 
Q 1344 -625 1503 -206 
L 1606 56 
L 191 3500 
L 800 3500 
L 1894 763 
L 2988 3500 
L 3597 3500 
L 2059 -325 
z
" transform="scale(0.015625)"/>
      </defs>
      <use xlink:href="#DejaVuSans-46"/>
      <use xlink:href="#DejaVuSans-72" x="50.269531"/>
      <use xlink:href="#DejaVuSans-65" x="89.132812"/>
      <use xlink:href="#DejaVuSans-71" x="150.65625"/>
      <use xlink:href="#DejaVuSans-75" x="214.132812"/>
      <use xlink:href="#DejaVuSans-65" x="277.511719"/>
      <use xlink:href="#DejaVuSans-6e" x="339.035156"/>
      <use xlink:href="#DejaVuSans-63" x="402.414062"/>
      <use xlink:href="#DejaVuSans-79" x="457.394531"/>
     </g>
    </g>
   </g>
   <g id="patch_93">
    <path d="M 90 384.48 
L 90 51.84 
" style="fill: none; stroke: #000000; stroke-width: 0.8; stroke-linejoin: miter; stroke-linecap: square"/>
   </g>
   <g id="patch_94">
    <path d="M 648 384.48 
L 648 51.84 
" style="fill: none; stroke: #000000; stroke-width: 0.8; stroke-linejoin: miter; stroke-linecap: square"/>
   </g>
   <g id="patch_95">
    <path d="M 90 384.48 
L 648 384.48 
" style="fill: none; stroke: #000000; stroke-width: 0.8; stroke-linejoin: miter; stroke-linecap: square"/>
   </g>
   <g id="patch_96">
    <path d="M 90 51.84 
L 648 51.84 
" style="fill: none; stroke: #000000; stroke-width: 0.8; stroke-linejoin: miter; stroke-linecap: square"/>
   </g>
   <g id="text_15">
    <!-- Family Member Comparison of Carbon Footprint (Last 7 Days) -->
    <g transform="translate(183.435 45.84) scale(0.12 -0.12)">
     <defs>
      <path id="DejaVuSans-6d" d="M 3328 2828 
Q 3544 3216 3844 3400 
Q 4144 3584 4550 3584 
Q 5097 3584 5394 3201 
Q 5691 2819 5691 2113 
L 5691 0 
L 5113 0 
L 5113 2094 
Q 5113 2597 4934 2840 
Q 4756 3084 4391 3084 
Q 3944 3084 3684 2787 
Q 3425 2491 3425 1978 
L 3425 0 
L 2847 0 
L 2847 2094 
Q 2847 2600 2669 2842 
Q 2491 3084 2119 3084 
Q 1678 3084 1418 2786 
Q 1159 2488 1159 1978 
L 1159 0 
L 581 0 
L 581 3500 
L 1159 3500 
L 1159 2956 
Q 1356 3278 1631 3431 
Q 1906 3584 2284 3584 
Q 2666 3584 2933 3390 
Q 3200 3197 3328 2828 
z
" transform="scale(0.015625)"/>
      <path id="DejaVuSans-6c" d="M 603 4863 
L 1178 4863 
L 1178 0 
L 603 0 
L 603 4863 
z
" transform="scale(0.015625)"/>
      <path id="DejaVuSans-4d" d="M 628 4666 
L 1569 4666 
L 2759 1491 
L 3956 4666 
L 4897 4666 
L 4897 0 
L 4281 0 
L 4281 4097 
L 3078 897 
L 2444 897 
L 1241 4097 
L 1241 0 
L 628 0 
L 628 4666 
z
" transform="scale(0.015625)"/>
      <path id="DejaVuSans-73" d="M 2834 3397 
L 2834 2853 
Q 2591 2978 2328 3040 
Q 2066 3103 1784 3103 
Q 1356 3103 1142 2972 
Q 928 2841 928 2578 
Q 928 2378 1081 2264 
Q 1234 2150 1697 2047 
L 1894 2003 
Q 2506 1872 2764 1633 
Q 3022 1394 3022 966 
Q 3022 478 2636 193 
Q 2250 -91 1575 -91 
Q 1294 -91 989 -36 
Q 684 19 347 128 
L 347 722 
Q 666 556 975 473 
Q 1284 391 1588 391 
Q 1994 391 2212 530 
Q 2431 669 2431 922 
Q 2431 1156 2273 1281 
Q 2116 1406 1581 1522 
L 1381 1569 
Q 847 1681 609 1914 
Q 372 2147 372 2553 
Q 372 3047 722 3315 
Q 1072 3584 1716 3584 
Q 2034 3584 2315 3537 
Q 2597 3491 2834 3397 
z
" transform="scale(0.015625)"/>
      <path id="DejaVuSans-66" d="M 2375 4863 
L 2375 4384 
L 1825 4384 
Q 1516 4384 1395 4259 
Q 1275 4134 1275 3809 
L 1275 3500 
L 2222 3500 
L 2222 3053 
L 1275 3053 
L 1275 0 
L 697 0 
L 697 3053 
L 147 3053 
L 147 3500 
L 697 3500 
L 697 3744 
Q 697 4328 969 4595 
Q 1241 4863 1831 4863 
L 2375 4863 
z
" transform="scale(0.015625)"/>
      <path id="DejaVuSans-28" d="M 1984 4856 
Q 1566 4138 1362 3434 
Q 1159 2731 1159 2009 
Q 1159 1288 1364 580 
Q 1569 -128 1984 -844 
L 1484 -844 
Q 1016 -109 783 600 
Q 550 1309 550 2009 
Q 550 2706 781 3412 
Q 1013 4119 1484 4856 
L 1984 4856 
z
" transform="scale(0.015625)"/>
      <path id="DejaVuSans-4c" d="M 628 4666 
L 1259 4666 
L 1259 531 
L 3531 531 
L 3531 0 
L 628 0 
L 628 4666 
z
" transform="scale(0.015625)"/>
      <path id="DejaVuSans-37" d="M 525 4666 
L 3525 4666 
L 3525 4397 
L 1831 0 
L 1172 0 
L 2766 4134 
L 525 4134 
L 525 4666 
z
" transform="scale(0.015625)"/>
      <path id="DejaVuSans-44" d="M 1259 4147 
L 1259 519 
L 2022 519 
Q 2988 519 3436 956 
Q 3884 1394 3884 2338 
Q 3884 3275 3436 3711 
Q 2988 4147 2022 4147 
L 1259 4147 
z
M 628 4666 
L 1925 4666 
Q 3281 4666 3915 4102 
Q 4550 3538 4550 2338 
Q 4550 1131 3912 565 
Q 3275 0 1925 0 
L 628 0 
L 628 4666 
z
" transform="scale(0.015625)"/>
      <path id="DejaVuSans-29" d="M 513 4856 
L 1013 4856 
Q 1481 4119 1714 3412 
Q 1947 2706 1947 2009 
Q 1947 1309 1714 600 
Q 1481 -109 1013 -844 
L 513 -844 
Q 928 -128 1133 580 
Q 1338 1288 1338 2009 
Q 1338 2731 1133 3434 
Q 928 4138 513 4856 
z
" transform="scale(0.015625)"/>
     </defs>
     <use xlink:href="#DejaVuSans-46"/>
     <use xlink:href="#DejaVuSans-61" x="48.394531"/>
     <use xlink:href="#DejaVuSans-6d" x="109.673828"/>
     <use xlink:href="#DejaVuSans-69" x="207.085938"/>
     <use xlink:href="#DejaVuSans-6c" x="234.869141"/>
     <use xlink:href="#DejaVuSans-79" x="262.652344"/>
     <use xlink:href="#DejaVuSans-20" x="321.832031"/>
     <use xlink:href="#DejaVuSans-4d" x="353.619141"/>
     <use xlink:href="#DejaVuSans-65" x="439.898438"/>
     <use xlink:href="#DejaVuSans-6d" x="501.421875"/>
     <use xlink:href="#DejaVuSans-62" x="598.833984"/>
     <use xlink:href="#DejaVuSans-65" x="662.310547"/>
     <use xlink:href="#DejaVuSans-72" x="723.833984"/>
     <use xlink:href="#DejaVuSans-20" x="764.947266"/>
     <use xlink:href="#DejaVuSans-43" x="796.734375"/>
     <use xlink:href="#DejaVuSans-6f" x="866.558594"/>
     <use xlink:href="#DejaVuSans-6d" x="927.740234"/>
     <use xlink:href="#DejaVuSans-70" x="1025.152344"/>
     <use xlink:href="#DejaVuSans-61" x="1088.628906"/>
     <use xlink:href="#DejaVuSans-72" x="1149.908203"/>
     <use xlink:href="#DejaVuSans-69" x="1191.021484"/>
     <use xlink:href="#DejaVuSans-73" x="1218.804688"/>
     <use xlink:href="#DejaVuSans-6f" x="1270.904297"/>
     <use xlink:href="#DejaVuSans-6e" x="1332.085938"/>
     <use xlink:href="#DejaVuSans-20" x="1395.464844"/>
     <use xlink:href="#DejaVuSans-6f" x="1427.251953"/>
     <use xlink:href="#DejaVuSans-66" x="1488.433594"/>
     <use xlink:href="#DejaVuSans-20" x="1523.638672"/>
     <use xlink:href="#DejaVuSans-43" x="1555.425781"/>
     <use xlink:href="#DejaVuSans-61" x="1625.25"/>
     <use xlink:href="#DejaVuSans-72" x="1686.529297"/>
     <use xlink:href="#DejaVuSans-62" x="1727.642578"/>
     <use xlink:href="#DejaVuSans-6f" x="1791.119141"/>
     <use xlink:href="#DejaVuSans-6e" x="1852.300781"/>
     <use xlink:href="#DejaVuSans-20" x="1915.679688"/>
     <use xlink:href="#DejaVuSans-46" x="1947.466797"/>
     <use xlink:href="#DejaVuSans-6f" x="2001.361328"/>
     <use xlink:href="#DejaVuSans-6f" x="2062.542969"/>
     <use xlink:href="#DejaVuSans-74" x="2123.724609"/>
     <use xlink:href="#DejaVuSans-70" x="2162.933594"/>
     <use xlink:href="#DejaVuSans-72" x="2226.410156"/>
     <use xlink:href="#DejaVuSans-69" x="2267.523438"/>
     <use xlink:href="#DejaVuSans-6e" x="2295.306641"/>
     <use xlink:href="#DejaVuSans-74" x="2358.685547"/>
     <use xlink:href="#DejaVuSans-20" x="2397.894531"/>
     <use xlink:href="#DejaVuSans-28" x="2429.681641"/>
     <use xlink:href="#DejaVuSans-4c" x="2468.695312"/>
     <use xlink:href="#DejaVuSans-61" x="2524.408203"/>
     <use xlink:href="#DejaVuSans-73" x="2585.6875"/>
     <use xlink:href="#DejaVuSans-74" x="2637.787109"/>
     <use xlink:href="#DejaVuSans-20" x="2676.996094"/>
     <use xlink:href="#DejaVuSans-37" x="2708.783203"/>
     <use xlink:href="#DejaVuSans-20" x="2772.40625"/>
     <use xlink:href="#DejaVuSans-44" x="2804.193359"/>
     <use xlink:href="#DejaVuSans-61" x="2881.195312"/>
     <use xlink:href="#DejaVuSans-79" x="2942.474609"/>
     <use xlink:href="#DejaVuSans-73" x="3001.654297"/>
     <use xlink:href="#DejaVuSans-29" x="3053.753906"/>
    </g>
   </g>
   <g id="legend_1">
    <g id="patch_97">
     <path d="M 97 149.5775 
L 253.109375 149.5775 
Q 255.109375 149.5775 255.109375 147.5775 
L 255.109375 58.84 
Q 255.109375 56.84 253.109375 56.84 
L 97 56.84 
Q 95 56.84 95 58.84 
L 95 147.5775 
Q 95 149.5775 97 149.5775 
z
" style="fill: #ffffff; opacity: 0.8; stroke: #cccccc; stroke-linejoin: miter"/>
    </g>
    <g id="patch_98">
     <path d="M 99 68.438437 
L 119 68.438437 
L 119 61.438437 
L 99 61.438437 
z
" style="fill: #1f77b4; opacity: 0.5"/>
    </g>
    <g id="text_16">
     <!-- FAM001_DAUGHTER -->
     <g transform="translate(127 68.438437) scale(0.1 -0.1)">
      <defs>
       <path id="DejaVuSans-41" d="M 2188 4044 
L 1331 1722 
L 3047 1722 
L 2188 4044 
z
M 1831 4666 
L 2547 4666 
L 4325 0 
L 3669 0 
L 3244 1197 
L 1141 1197 
L 716 0 
L 50 0 
L 1831 4666 
z
" transform="scale(0.015625)"/>
       <path id="DejaVuSans-5f" d="M 3263 -1063 
L 3263 -1509 
L -63 -1509 
L -63 -1063 
L 3263 -1063 
z
" transform="scale(0.015625)"/>
       <path id="DejaVuSans-55" d="M 556 4666 
L 1191 4666 
L 1191 1831 
Q 1191 1081 1462 751 
Q 1734 422 2344 422 
Q 2950 422 3222 751 
Q 3494 1081 3494 1831 
L 3494 4666 
L 4128 4666 
L 4128 1753 
Q 4128 841 3676 375 
Q 3225 -91 2344 -91 
Q 1459 -91 1007 375 
Q 556 841 556 1753 
L 556 4666 
z
" transform="scale(0.015625)"/>
       <path id="DejaVuSans-47" d="M 3809 666 
L 3809 1919 
L 2778 1919 
L 2778 2438 
L 4434 2438 
L 4434 434 
Q 4069 175 3628 42 
Q 3188 -91 2688 -91 
Q 1594 -91 976 548 
Q 359 1188 359 2328 
Q 359 3472 976 4111 
Q 1594 4750 2688 4750 
Q 3144 4750 3555 4637 
Q 3966 4525 4313 4306 
L 4313 3634 
Q 3963 3931 3569 4081 
Q 3175 4231 2741 4231 
Q 1884 4231 1454 3753 
Q 1025 3275 1025 2328 
Q 1025 1384 1454 906 
Q 1884 428 2741 428 
Q 3075 428 3337 486 
Q 3600 544 3809 666 
z
" transform="scale(0.015625)"/>
       <path id="DejaVuSans-48" d="M 628 4666 
L 1259 4666 
L 1259 2753 
L 3553 2753 
L 3553 4666 
L 4184 4666 
L 4184 0 
L 3553 0 
L 3553 2222 
L 1259 2222 
L 1259 0 
L 628 0 
L 628 4666 
z
" transform="scale(0.015625)"/>
       <path id="DejaVuSans-54" d="M -19 4666 
L 3928 4666 
L 3928 4134 
L 2272 4134 
L 2272 0 
L 1638 0 
L 1638 4134 
L -19 4134 
L -19 4666 
z
" transform="scale(0.015625)"/>
       <path id="DejaVuSans-45" d="M 628 4666 
L 3578 4666 
L 3578 4134 
L 1259 4134 
L 1259 2753 
L 3481 2753 
L 3481 2222 
L 1259 2222 
L 1259 531 
L 3634 531 
L 3634 0 
L 628 0 
L 628 4666 
z
" transform="scale(0.015625)"/>
       <path id="DejaVuSans-52" d="M 2841 2188 
Q 3044 2119 3236 1894 
Q 3428 1669 3622 1275 
L 4263 0 
L 3584 0 
L 2988 1197 
Q 2756 1666 2539 1819 
Q 2322 1972 1947 1972 
L 1259 1972 
L 1259 0 
L 628 0 
L 628 4666 
L 2053 4666 
Q 2853 4666 3247 4331 
Q 3641 3997 3641 3322 
Q 3641 2881 3436 2590 
Q 3231 2300 2841 2188 
z
M 1259 4147 
L 1259 2491 
L 2053 2491 
Q 2509 2491 2742 2702 
Q 2975 2913 2975 3322 
Q 2975 3731 2742 3939 
Q 2509 4147 2053 4147 
L 1259 4147 
z
" transform="scale(0.015625)"/>
      </defs>
      <use xlink:href="#DejaVuSans-46"/>
      <use xlink:href="#DejaVuSans-41" x="48.394531"/>
      <use xlink:href="#DejaVuSans-4d" x="116.802734"/>
      <use xlink:href="#DejaVuSans-30" x="203.082031"/>
      <use xlink:href="#DejaVuSans-30" x="266.705078"/>
      <use xlink:href="#DejaVuSans-31" x="330.328125"/>
      <use xlink:href="#DejaVuSans-5f" x="393.951172"/>
      <use xlink:href="#DejaVuSans-44" x="443.951172"/>
      <use xlink:href="#DejaVuSans-41" x="519.203125"/>
      <use xlink:href="#DejaVuSans-55" x="587.611328"/>
      <use xlink:href="#DejaVuSans-47" x="660.804688"/>
      <use xlink:href="#DejaVuSans-48" x="738.294922"/>
      <use xlink:href="#DejaVuSans-54" x="813.490234"/>
      <use xlink:href="#DejaVuSans-45" x="874.574219"/>
      <use xlink:href="#DejaVuSans-52" x="937.757812"/>
     </g>
    </g>
    <g id="patch_99">
     <path d="M 99 83.394687 
L 119 83.394687 
L 119 76.394687 
L 99 76.394687 
z
" style="fill: #ff7f0e; opacity: 0.5"/>
    </g>
    <g id="text_17">
     <!-- FAM001_FATHER -->
     <g transform="translate(127 83.394687) scale(0.1 -0.1)">
      <use xlink:href="#DejaVuSans-46"/>
      <use xlink:href="#DejaVuSans-41" x="48.394531"/>
      <use xlink:href="#DejaVuSans-4d" x="116.802734"/>
      <use xlink:href="#DejaVuSans-30" x="203.082031"/>
      <use xlink:href="#DejaVuSans-30" x="266.705078"/>
      <use xlink:href="#DejaVuSans-31" x="330.328125"/>
      <use xlink:href="#DejaVuSans-5f" x="393.951172"/>
      <use xlink:href="#DejaVuSans-46" x="443.951172"/>
      <use xlink:href="#DejaVuSans-41" x="492.345703"/>
      <use xlink:href="#DejaVuSans-54" x="553.003906"/>
      <use xlink:href="#DejaVuSans-48" x="614.087891"/>
      <use xlink:href="#DejaVuSans-45" x="689.283203"/>
      <use xlink:href="#DejaVuSans-52" x="752.466797"/>
     </g>
    </g>
    <g id="patch_100">
     <path d="M 99 98.350937 
L 119 98.350937 
L 119 91.350937 
L 99 91.350937 
z
" style="fill: #2ca02c; opacity: 0.5"/>
    </g>
    <g id="text_18">
     <!-- FAM001_GRANDFATHER -->
     <g transform="translate(127 98.350937) scale(0.1 -0.1)">
      <defs>
       <path id="DejaVuSans-4e" d="M 628 4666 
L 1478 4666 
L 3547 763 
L 3547 4666 
L 4159 4666 
L 4159 0 
L 3309 0 
L 1241 3903 
L 1241 0 
L 628 0 
L 628 4666 
z
" transform="scale(0.015625)"/>
      </defs>
      <use xlink:href="#DejaVuSans-46"/>
      <use xlink:href="#DejaVuSans-41" x="48.394531"/>
      <use xlink:href="#DejaVuSans-4d" x="116.802734"/>
      <use xlink:href="#DejaVuSans-30" x="203.082031"/>
      <use xlink:href="#DejaVuSans-30" x="266.705078"/>
      <use xlink:href="#DejaVuSans-31" x="330.328125"/>
      <use xlink:href="#DejaVuSans-5f" x="393.951172"/>
      <use xlink:href="#DejaVuSans-47" x="443.951172"/>
      <use xlink:href="#DejaVuSans-52" x="521.441406"/>
      <use xlink:href="#DejaVuSans-41" x="586.923828"/>
      <use xlink:href="#DejaVuSans-4e" x="655.332031"/>
      <use xlink:href="#DejaVuSans-44" x="730.136719"/>
      <use xlink:href="#DejaVuSans-46" x="807.138672"/>
      <use xlink:href="#DejaVuSans-41" x="855.533203"/>
      <use xlink:href="#DejaVuSans-54" x="916.191406"/>
      <use xlink:href="#DejaVuSans-48" x="977.275391"/>
      <use xlink:href="#DejaVuSans-45" x="1052.470703"/>
      <use xlink:href="#DejaVuSans-52" x="1115.654297"/>
     </g>
    </g>
    <g id="patch_101">
     <path d="M 99 113.307187 
L 119 113.307187 
L 119 106.307187 
L 99 106.307187 
z
" style="fill: #d62728; opacity: 0.5"/>
    </g>
    <g id="text_19">
     <!-- FAM001_GRANDMOTHER -->
     <g transform="translate(127 113.307187) scale(0.1 -0.1)">
      <defs>
       <path id="DejaVuSans-4f" d="M 2522 4238 
Q 1834 4238 1429 3725 
Q 1025 3213 1025 2328 
Q 1025 1447 1429 934 
Q 1834 422 2522 422 
Q 3209 422 3611 934 
Q 4013 1447 4013 2328 
Q 4013 3213 3611 3725 
Q 3209 4238 2522 4238 
z
M 2522 4750 
Q 3503 4750 4090 4092 
Q 4678 3434 4678 2328 
Q 4678 1225 4090 567 
Q 3503 -91 2522 -91 
Q 1538 -91 948 565 
Q 359 1222 359 2328 
Q 359 3434 948 4092 
Q 1538 4750 2522 4750 
z
" transform="scale(0.015625)"/>
      </defs>
      <use xlink:href="#DejaVuSans-46"/>
      <use xlink:href="#DejaVuSans-41" x="48.394531"/>
      <use xlink:href="#DejaVuSans-4d" x="116.802734"/>
      <use xlink:href="#DejaVuSans-30" x="203.082031"/>
      <use xlink:href="#DejaVuSans-30" x="266.705078"/>
      <use xlink:href="#DejaVuSans-31" x="330.328125"/>
      <use xlink:href="#DejaVuSans-5f" x="393.951172"/>
      <use xlink:href="#DejaVuSans-47" x="443.951172"/>
      <use xlink:href="#DejaVuSans-52" x="521.441406"/>
      <use xlink:href="#DejaVuSans-41" x="586.923828"/>
      <use xlink:href="#DejaVuSans-4e" x="655.332031"/>
      <use xlink:href="#DejaVuSans-44" x="730.136719"/>
      <use xlink:href="#DejaVuSans-4d" x="807.138672"/>
      <use xlink:href="#DejaVuSans-4f" x="893.417969"/>
      <use xlink:href="#DejaVuSans-54" x="972.128906"/>
      <use xlink:href="#DejaVuSans-48" x="1033.212891"/>
      <use xlink:href="#DejaVuSans-45" x="1108.408203"/>
      <use xlink:href="#DejaVuSans-52" x="1171.591797"/>
     </g>
    </g>
    <g id="patch_102">
     <path d="M 99 128.263437 
L 119 128.263437 
L 119 121.263437 
L 99 121.263437 
z
" style="fill: #9467bd; opacity: 0.5"/>
    </g>
    <g id="text_20">
     <!-- FAM001_MOTHER -->
     <g transform="translate(127 128.263437) scale(0.1 -0.1)">
      <use xlink:href="#DejaVuSans-46"/>
      <use xlink:href="#DejaVuSans-41" x="48.394531"/>
      <use xlink:href="#DejaVuSans-4d" x="116.802734"/>
      <use xlink:href="#DejaVuSans-30" x="203.082031"/>
      <use xlink:href="#DejaVuSans-30" x="266.705078"/>
      <use xlink:href="#DejaVuSans-31" x="330.328125"/>
      <use xlink:href="#DejaVuSans-5f" x="393.951172"/>
      <use xlink:href="#DejaVuSans-4d" x="443.951172"/>
      <use xlink:href="#DejaVuSans-4f" x="530.230469"/>
      <use xlink:href="#DejaVuSans-54" x="608.941406"/>
      <use xlink:href="#DejaVuSans-48" x="670.025391"/>
      <use xlink:href="#DejaVuSans-45" x="745.220703"/>
      <use xlink:href="#DejaVuSans-52" x="808.404297"/>
     </g>
    </g>
    <g id="patch_103">
     <path d="M 99 143.219687 
L 119 143.219687 
L 119 136.219687 
L 99 136.219687 
z
" style="fill: #8c564b; opacity: 0.5"/>
    </g>
    <g id="text_21">
     <!-- FAM001_SON -->
     <g transform="translate(127 143.219687) scale(0.1 -0.1)">
      <defs>
       <path id="DejaVuSans-53" d="M 3425 4513 
L 3425 3897 
Q 3066 4069 2747 4153 
Q 2428 4238 2131 4238 
Q 1616 4238 1336 4038 
Q 1056 3838 1056 3469 
Q 1056 3159 1242 3001 
Q 1428 2844 1947 2747 
L 2328 2669 
Q 3034 2534 3370 2195 
Q 3706 1856 3706 1288 
Q 3706 609 3251 259 
Q 2797 -91 1919 -91 
Q 1588 -91 1214 -16 
Q 841 59 441 206 
L 441 856 
Q 825 641 1194 531 
Q 1563 422 1919 422 
Q 2459 422 2753 634 
Q 3047 847 3047 1241 
Q 3047 1584 2836 1778 
Q 2625 1972 2144 2069 
L 1759 2144 
Q 1053 2284 737 2584 
Q 422 2884 422 3419 
Q 422 4038 858 4394 
Q 1294 4750 2059 4750 
Q 2388 4750 2728 4690 
Q 3069 4631 3425 4513 
z
" transform="scale(0.015625)"/>
      </defs>
      <use xlink:href="#DejaVuSans-46"/>
      <use xlink:href="#DejaVuSans-41" x="48.394531"/>
      <use xlink:href="#DejaVuSans-4d" x="116.802734"/>
      <use xlink:href="#DejaVuSans-30" x="203.082031"/>
      <use xlink:href="#DejaVuSans-30" x="266.705078"/>
      <use xlink:href="#DejaVuSans-31" x="330.328125"/>
      <use xlink:href="#DejaVuSans-5f" x="393.951172"/>
      <use xlink:href="#DejaVuSans-53" x="443.951172"/>
      <use xlink:href="#DejaVuSans-4f" x="507.427734"/>
      <use xlink:href="#DejaVuSans-4e" x="586.138672"/>
     </g>
    </g>
   </g>
  </g>
 </g>
 <defs>
  <clipPath id="p95edd3ee53">
   <rect x="90" y="51.84" width="558" height="332.64"/>
  </clipPath>
 </defs>
</svg>
